<?xml version="1.0" encoding="UTF-8"?>
<svg width="700pt" height="700pt" version="1.1" viewBox="0 0 700 700" xmlns="http://www.w3.org/2000/svg">
 <g fill-rule="evenodd">
  <path d="m455 245c0 57.988-47.012 105-105 105s-105-47.012-105-105 47.012-105 105-105 105 47.012 105 105"/>
  <path d="m478.73 398.49c0.62891-0.66406 1.1914-1.3828 1.6992-2.1367 3.2383-4.8477 3.8516-11.008 1.6289-16.414-5.2344-12.652-12.934-24.309-22.801-34.195-19.703-19.688-46.41-30.746-74.254-30.746h-70c-27.844 0-54.547 11.059-74.254 30.746-9.8711 9.8867-17.57 21.543-22.801 34.195-2.5898 6.3008-1.3125 13.527 3.3086 18.531 31.988 34.754 77.84 56.523 128.75 56.523s96.758-21.77 128.75-56.523z"/>
  <path d="m350 52.5c-125.56 0-227.5 101.94-227.5 227.5s101.94 227.5 227.5 227.5 227.5-101.94 227.5-227.5-101.94-227.5-227.5-227.5zm0 35c106.24 0 192.5 86.258 192.5 192.5s-86.258 192.5-192.5 192.5-192.5-86.258-192.5-192.5 86.258-192.5 192.5-192.5z"/>
 </g>
</svg>
